<svg class="icon" width="32px" height="32.00px" viewBox="0 0 1024 1024" version="1.1" xmlns="http://www.w3.org/2000/svg"><path fill="#1296db" d="M210.346667 970.666667a98.56 98.56 0 0 1-49.493334-12.8 117.461333 117.461333 0 0 1-51.626666-106.24V250.026667a196.906667 196.906667 0 0 1 196.693333-196.693334h411.733333a196.906667 196.906667 0 0 1 196.693334 196.693334v601.173333a117.376 117.376 0 0 1-51.626667 106.24 96.853333 96.853333 0 0 1-49.578667 12.8 143.189333 143.189333 0 0 1-68.608-19.328l-208.213333-115.626667a61.269333 61.269333 0 0 0-49.066667 0L279.04 951.04a143.914667 143.914667 0 0 1-68.693333 19.626667zM512 766.421333a116.394667 116.394667 0 0 1 55.466667 13.098667l208.256 115.626667a78.08 78.08 0 0 0 37.290666 11.605333 33.28 33.28 0 0 0 17.322667-4.266667 57.728 57.728 0 0 0 20.053333-51.2V250.026667a132.821333 132.821333 0 0 0-132.736-132.693334H306.346667a132.821333 132.821333 0 0 0-132.693334 132.693334v601.173333a56.746667 56.746667 0 0 0 20.053334 51.2 34.858667 34.858667 0 0 0 17.408 4.266667 77.525333 77.525333 0 0 0 37.205333-11.392l208.213333-115.626667a116.565333 116.565333 0 0 1 55.466667-13.226667z"  /><path fill="#1296db" d="M450.56 555.946667l-64-64a32 32 0 0 1 45.226667-45.226667l41.386666 41.386667 148.096-148.053334a32 32 0 0 1 45.226667 45.226667l-170.666667 170.666667a31.914667 31.914667 0 0 1-45.226666 0z"  /></svg>